<svg xmlns="http://www.w3.org/2000/svg" width="47.848" height="23.924" viewBox="0 0 47.848 23.924"><defs><style>.a{fill:#fff;}.b{fill:#cf142b;}.c{fill:#00247d;}</style></defs><rect class="a" width="47.822" height="23.921"/><path class="b" d="M21.52,14.345v9.576H26.3V14.345h21.52V9.563H26.3V0H21.52V9.563H0v4.782Z"/><path class="c" d="M174.91,7.743V0H190.4Z" transform="translate(-147.013)"/><path class="c" d="M174.91,101.43v7.743H190.4Z" transform="translate(-147.013 -85.253)"/><path class="c" d="M43.334,101.43v7.743H27.85Z" transform="translate(-23.408 -85.253)"/><path class="c" d="M43.334,7.743V0H27.85Z" transform="translate(-23.408)"/><path class="c" d="M0,13.94v5.75H11.5Z" transform="translate(0 -11.717)"/><path class="c" d="M239.256,13.94v5.75h-11.5Z" transform="translate(-191.434 -11.717)"/><path class="c" d="M239.256,105.74V99.99h-11.5Z" transform="translate(-191.434 -84.042)"/><path class="c" d="M0,105.74V99.99H11.5Z" transform="translate(0 -84.042)"/><path class="b" d="M201.971,0h-2.656L183.4,7.973h2.656L202,0" transform="translate(-154.149)"/><path class="b" d="M18.571,99.99H15.916L0,107.963H2.656L18.6,99.99" transform="translate(0 -84.042)"/><path class="b" d="M13.281,7.979h2.656L0,0V1.337Z"/><path class="b" d="M202.526,99.97H199.87l15.936,7.979v-1.337Z" transform="translate(-167.992 -84.026)"/></svg>