<svg id="icon-crypto-wallet" xmlns="http://www.w3.org/2000/svg" width="106" height="106" viewBox="0 0 106 106">
  <defs>
    <style>
      .cls-1 {
        fill: #fff;
      }

      .cls-2, .cls-4 {
        fill: none;
      }

      .cls-2 {
        stroke: #1e32a3;
        stroke-width: 2px;
      }

      .cls-3 {
        stroke: none;
      }
    </style>
  </defs>
  <path id="Path_1086" data-name="Path 1086" class="cls-1" d="M207.329,836.847a13.421,13.421,0,0,1,4.362,9.821l0,.749a13.342,13.342,0,0,1-13.341,13.4h-.328l.02,3.956h-8.607l-.02-3.956h-3.527l.019,3.956H177.3l-.019-3.956h-6.277l-.042-8.607h4.269l-.051-10.34-.042-8.611-.046-9.312h-4.268l-.042-8.612h6.278l-.024-4.838h8.609l.022,4.838H189.2l-.023-4.838h8.607l.023,4.88A13,13,0,0,1,210,828.254l0,.707A12.773,12.773,0,0,1,207.329,836.847Zm-4.24,10.57,0-.749a4.83,4.83,0,0,0-4.822-4.795H183.79l.05,10.34h14.472a4.777,4.777,0,0,0,4.777-4.8M183.7,823.951l.046,9.312h13.36a4.285,4.285,0,0,0,4.285-4.3l0-.707a4.335,4.335,0,0,0-4.326-4.3H183.7" transform="translate(-136.7 -784.638)"/>
  <g id="Ellipse_44" data-name="Ellipse 44" class="cls-2">
    <circle class="cls-3" cx="53" cy="53" r="53"/>
    <circle class="cls-4" cx="53" cy="53" r="52"/>
  </g>
</svg>
