<svg id="icon-prime-of-primes" xmlns="http://www.w3.org/2000/svg" xmlns:xlink="http://www.w3.org/1999/xlink" width="110.001" height="110.001" viewBox="0 0 110.001 110.001">
  <defs>
    <linearGradient id="linear-gradient" x1="0.181" y1="0.044" x2="0.831" y2="0.866" gradientUnits="objectBoundingBox">
      <stop offset="0" stop-color="#a0762f"/>
      <stop offset="0.158" stop-color="#fdc778"/>
      <stop offset="0.505" stop-color="#ebcb88"/>
      <stop offset="0.854" stop-color="#bb914a"/>
      <stop offset="1" stop-color="#a0762f"/>
    </linearGradient>
  </defs>
  <path id="Exclusion_5" data-name="Exclusion 5" d="M-5971,110a54.652,54.652,0,0,1-21.408-4.322,54.817,54.817,0,0,1-17.482-11.787,54.81,54.81,0,0,1-11.788-17.483A54.65,54.65,0,0,1-6026,55a54.652,54.652,0,0,1,4.322-21.409,54.808,54.808,0,0,1,11.788-17.482,54.817,54.817,0,0,1,17.482-11.787A54.654,54.654,0,0,1-5971,0a54.654,54.654,0,0,1,21.408,4.322,54.817,54.817,0,0,1,17.482,11.787,54.807,54.807,0,0,1,11.788,17.482A54.652,54.652,0,0,1-5916,55a54.65,54.65,0,0,1-4.322,21.408,54.81,54.81,0,0,1-11.788,17.483,54.817,54.817,0,0,1-17.482,11.787A54.652,54.652,0,0,1-5971,110Zm0-106a51.058,51.058,0,0,0-51,51,51.058,51.058,0,0,0,51,51,51.058,51.058,0,0,0,51-51A51.058,51.058,0,0,0-5971,4Z" transform="translate(6026)" fill="url(#linear-gradient)"/>
  <g id="Group_3520" data-name="Group 3520" transform="translate(24 22.378)">
    <path id="Path_1078" data-name="Path 1078" d="M823.892,490.257h-7.923a1.212,1.212,0,0,0,0,2.423h.489v18.233H823.4V492.68h.492a1.212,1.212,0,0,0,0-2.423Z" transform="translate(-808.032 -470.065)" fill="#fff"/>
    <path id="Path_1079" data-name="Path 1079" d="M852.461,490.257h-7.926a1.212,1.212,0,0,0,0,2.423h.491v18.233h6.939V492.68h.5a1.212,1.212,0,0,0,0-2.423Z" transform="translate(-817.149 -470.065)" fill="#fff"/>
    <path id="Path_1080" data-name="Path 1080" d="M879.872,490.257h-7.924a1.212,1.212,0,0,0,0,2.423h.492v18.233h6.939V492.68h.492a1.212,1.212,0,0,0,0-2.423Z" transform="translate(-825.898 -470.065)" fill="#fff"/>
    <path id="Path_1081" data-name="Path 1081" d="M866.79,536.981c0,.212-.322.384-.716.384H805.6c-.394,0-.716-.172-.716-.384v-1.766c0-.212.322-.383.716-.383h60.479c.394,0,.716.172.716.383Z" transform="translate(-804.88 -484.291)" fill="#fff"/>
    <path id="Path_1082" data-name="Path 1082" d="M865.328,531.083c0,.21-.291.383-.652.383h-55.1c-.359,0-.651-.173-.651-.383v-1.768c0-.21.291-.382.651-.382h55.1c.361,0,.652.172.652.382Z" transform="translate(-806.17 -482.408)" fill="#fff"/>
    <path id="Path_1083" data-name="Path 1083" d="M864.171,525.567c0,.21-.268.383-.6.383H812.731c-.333,0-.6-.174-.6-.383V523.8c0-.21.268-.385.6-.385h50.836c.335,0,.6.175.6.385Z" transform="translate(-807.194 -480.647)" fill="#fff"/>
    <path id="Path_1084" data-name="Path 1084" d="M837.385,460.678a.549.549,0,0,0-.564,0l-27.866,18.658c-.155.1-.129.189.057.189H865.2c.187,0,.212-.085.057-.189Zm-.282,13.7a2.664,2.664,0,1,1,2.664-2.666,2.666,2.666,0,0,1-2.664,2.666" transform="translate(-806.148 -460.6)" fill="#fff"/>
  </g>
</svg>
