<svg id="icon-metals" xmlns="http://www.w3.org/2000/svg" xmlns:xlink="http://www.w3.org/1999/xlink" width="106" height="110.001" viewBox="0 0 106 110.001">
  <defs>
    <linearGradient id="linear-gradient" x1="0.181" y1="0.044" x2="0.831" y2="0.866" gradientUnits="objectBoundingBox">
      <stop offset="0" stop-color="#a0762f"/>
      <stop offset="0.158" stop-color="#fdc778"/>
      <stop offset="0.505" stop-color="#ebcb88"/>
      <stop offset="0.854" stop-color="#bb914a"/>
      <stop offset="1" stop-color="#a0762f"/>
    </linearGradient>
  </defs>
  <path id="Exclusion_1" data-name="Exclusion 1" d="M-5973,110a51.02,51.02,0,0,1-20.63-4.322,52.765,52.765,0,0,1-16.847-11.787,54.978,54.978,0,0,1-11.359-17.483A56.443,56.443,0,0,1-6026,55a56.445,56.445,0,0,1,4.165-21.409,54.976,54.976,0,0,1,11.359-17.482A52.764,52.764,0,0,1-5993.63,4.322,51.022,51.022,0,0,1-5973,0a51.016,51.016,0,0,1,20.629,4.322,52.761,52.761,0,0,1,16.846,11.787,54.977,54.977,0,0,1,11.359,17.482A56.446,56.446,0,0,1-5920,55a56.443,56.443,0,0,1-4.165,21.408,54.978,54.978,0,0,1-11.359,17.483,52.761,52.761,0,0,1-16.846,11.787A51.014,51.014,0,0,1-5973,110Zm0-106c-27.019,0-49,22.879-49,51s21.981,51,49,51,49-22.879,49-51S-5945.981,4-5973,4Z" transform="translate(6026)" fill="url(#linear-gradient)"/>
  <g id="Group_3726" data-name="Group 3726" transform="translate(-763 -1312)">
    <path id="Path_5" data-name="Path 5" d="M533.323,175.066a3.272,3.272,0,0,1-2.872,1.8H504.756a3.279,3.279,0,0,1-2.869-1.8,3.846,3.846,0,0,1,0-3.59l6.424-12.051a3.267,3.267,0,0,1,2.871-1.793h12.842a3.273,3.273,0,0,1,2.873,1.793l6.424,12.051A3.832,3.832,0,0,1,533.323,175.066Zm6.936-16.258-1.146,5.374-5.379,1.146,5.379,1.143,1.146,5.373,1.147-5.373,5.381-1.143-5.381-1.146Zm-41.7-6.273-1.146,5.372-5.381,1.149,5.381,1.142,1.146,5.375L499.7,160.2l5.379-1.142-5.379-1.149Zm27.381-8.529-1.147,5.374-5.379,1.146,5.379,1.144,1.147,5.377,1.145-5.377,5.379-1.142-5.379-1.146Z" transform="translate(298.909 1188.803)" fill="#fff"/>
    <path id="Path_6" data-name="Path 6" d="M512.335,201.537l-6.422-12.051a3.272,3.272,0,0,0-2.87-1.793H490.2a3.27,3.27,0,0,0-2.87,1.793l-6.424,12.051a3.841,3.841,0,0,0,0,3.59,3.274,3.274,0,0,0,2.871,1.8h25.689a3.278,3.278,0,0,0,2.87-1.8A3.851,3.851,0,0,0,512.335,201.537Z" transform="translate(301.046 1180.737)" fill="#fff"/>
    <path id="Path_7" data-name="Path 7" d="M558.573,201.537l-6.424-12.051a3.271,3.271,0,0,0-2.869-1.793H536.436a3.276,3.276,0,0,0-2.871,1.793l-6.421,12.051a3.85,3.85,0,0,0,0,3.59,3.273,3.273,0,0,0,2.869,1.8H555.7a3.28,3.28,0,0,0,2.873-1.8A3.843,3.843,0,0,0,558.573,201.537Z" transform="translate(292.51 1180.737)" fill="#fff"/>
  </g>
</svg>
