<svg id="icon-metal" xmlns="http://www.w3.org/2000/svg" width="106" height="106" viewBox="0 0 106 106">
  <defs>
    <style>
      .cls-1 {
        fill: #fff;
      }

      .cls-2, .cls-4 {
        fill: none;
      }

      .cls-2 {
        stroke: #1e32a3;
        stroke-width: 2px;
      }

      .cls-3 {
        stroke: none;
      }
    </style>
  </defs>
  <path id="Path_5" data-name="Path 5" class="cls-1" d="M533.323,175.066a3.272,3.272,0,0,1-2.872,1.8H504.756a3.279,3.279,0,0,1-2.869-1.8,3.846,3.846,0,0,1,0-3.59l6.424-12.051a3.267,3.267,0,0,1,2.871-1.793h12.842a3.273,3.273,0,0,1,2.873,1.793l6.424,12.051A3.832,3.832,0,0,1,533.323,175.066Zm6.936-16.258-1.146,5.374-5.379,1.146,5.379,1.143,1.146,5.373,1.147-5.373,5.381-1.143-5.381-1.146Zm-41.7-6.273-1.146,5.372-5.381,1.149,5.381,1.142,1.146,5.375L499.7,160.2l5.379-1.142-5.379-1.149Zm27.381-8.529-1.147,5.374-5.379,1.146,5.379,1.144,1.147,5.377,1.145-5.377,5.379-1.142-5.379-1.146Z" transform="translate(-466.091 -123.197)"/>
  <path id="Path_6" data-name="Path 6" class="cls-1" d="M512.335,201.537l-6.422-12.051a3.272,3.272,0,0,0-2.87-1.793H490.2a3.27,3.27,0,0,0-2.87,1.793l-6.424,12.051a3.841,3.841,0,0,0,0,3.59,3.274,3.274,0,0,0,2.871,1.8h25.689a3.278,3.278,0,0,0,2.87-1.8A3.851,3.851,0,0,0,512.335,201.537Z" transform="translate(-463.954 -131.263)"/>
  <path id="Path_7" data-name="Path 7" class="cls-1" d="M558.573,201.537l-6.424-12.051a3.271,3.271,0,0,0-2.869-1.793H536.436a3.276,3.276,0,0,0-2.871,1.793l-6.421,12.051a3.85,3.85,0,0,0,0,3.59,3.273,3.273,0,0,0,2.869,1.8H555.7a3.28,3.28,0,0,0,2.873-1.8A3.843,3.843,0,0,0,558.573,201.537Z" transform="translate(-472.49 -131.263)"/>
  <g id="Ellipse_38" data-name="Ellipse 38" class="cls-2">
    <circle class="cls-3" cx="53" cy="53" r="53"/>
    <circle class="cls-4" cx="53" cy="53" r="52"/>
  </g>
</svg>
