<svg id="icon-mex-crypto-wallet" xmlns="http://www.w3.org/2000/svg" xmlns:xlink="http://www.w3.org/1999/xlink" width="110.001" height="110.001" viewBox="0 0 110.001 110.001">
  <defs>
    <linearGradient id="linear-gradient" x1="0.181" y1="0.044" x2="0.831" y2="0.866" gradientUnits="objectBoundingBox">
      <stop offset="0" stop-color="#a0762f"/>
      <stop offset="0.158" stop-color="#fdc778"/>
      <stop offset="0.505" stop-color="#ebcb88"/>
      <stop offset="0.854" stop-color="#bb914a"/>
      <stop offset="1" stop-color="#a0762f"/>
    </linearGradient>
  </defs>
  <path id="Exclusion_9" data-name="Exclusion 9" d="M-5971,110a54.652,54.652,0,0,1-21.408-4.322,54.817,54.817,0,0,1-17.482-11.787,54.81,54.81,0,0,1-11.788-17.483A54.65,54.65,0,0,1-6026,55a54.652,54.652,0,0,1,4.322-21.409,54.808,54.808,0,0,1,11.788-17.482,54.817,54.817,0,0,1,17.482-11.787A54.654,54.654,0,0,1-5971,0a54.654,54.654,0,0,1,21.408,4.322,54.817,54.817,0,0,1,17.482,11.787,54.807,54.807,0,0,1,11.788,17.482A54.652,54.652,0,0,1-5916,55a54.65,54.65,0,0,1-4.322,21.408,54.81,54.81,0,0,1-11.788,17.483,54.817,54.817,0,0,1-17.482,11.787A54.652,54.652,0,0,1-5971,110Zm0-106a51.058,51.058,0,0,0-51,51,51.058,51.058,0,0,0,51,51,51.058,51.058,0,0,0,51-51A51.058,51.058,0,0,0-5971,4Z" transform="translate(6026)" fill="url(#linear-gradient)"/>
  <g id="Group_3746" data-name="Group 3746" transform="translate(-1214 -1722)">
    <path id="Path_1086" data-name="Path 1086" d="M207.329,836.847a13.421,13.421,0,0,1,4.362,9.821l0,.749a13.342,13.342,0,0,1-13.341,13.4h-.328l.02,3.956h-8.607l-.02-3.956h-3.527l.019,3.956H177.3l-.019-3.956h-6.277l-.042-8.607h4.269l-.051-10.34-.042-8.611-.046-9.312h-4.268l-.042-8.612h6.278l-.024-4.838h8.609l.022,4.838H189.2l-.023-4.838h8.607l.023,4.88A13,13,0,0,1,210,828.254l0,.707A12.773,12.773,0,0,1,207.329,836.847Zm-4.24,10.57,0-.749a4.83,4.83,0,0,0-4.822-4.795H183.79l.05,10.34h14.472a4.777,4.777,0,0,0,4.777-4.8M183.7,823.951l.046,9.312h13.36a4.285,4.285,0,0,0,4.285-4.3l0-.707a4.335,4.335,0,0,0-4.326-4.3H183.7" transform="translate(1079.3 937.362)" fill="#fff"/>
  </g>
</svg>
