<svg id="icon-commodities" xmlns="http://www.w3.org/2000/svg" xmlns:xlink="http://www.w3.org/1999/xlink" width="110.001" height="110.001" viewBox="0 0 110.001 110.001">
  <defs>
    <linearGradient id="linear-gradient" x1="0.181" y1="0.044" x2="0.831" y2="0.866" gradientUnits="objectBoundingBox">
      <stop offset="0" stop-color="#a0762f"/>
      <stop offset="0.158" stop-color="#fdc778"/>
      <stop offset="0.505" stop-color="#ebcb88"/>
      <stop offset="0.854" stop-color="#bb914a"/>
      <stop offset="1" stop-color="#a0762f"/>
    </linearGradient>
  </defs>
  <path id="Exclusion_3" data-name="Exclusion 3" d="M-5971,110a54.652,54.652,0,0,1-21.408-4.322,54.817,54.817,0,0,1-17.482-11.787,54.81,54.81,0,0,1-11.788-17.483A54.65,54.65,0,0,1-6026,55a54.652,54.652,0,0,1,4.322-21.409,54.808,54.808,0,0,1,11.788-17.482,54.817,54.817,0,0,1,17.482-11.787A54.654,54.654,0,0,1-5971,0a54.654,54.654,0,0,1,21.408,4.322,54.817,54.817,0,0,1,17.482,11.787,54.807,54.807,0,0,1,11.788,17.482A54.652,54.652,0,0,1-5916,55a54.65,54.65,0,0,1-4.322,21.408,54.81,54.81,0,0,1-11.788,17.483,54.817,54.817,0,0,1-17.482,11.787A54.652,54.652,0,0,1-5971,110Zm0-106a51.058,51.058,0,0,0-51,51,51.058,51.058,0,0,0,51,51,51.058,51.058,0,0,0,51-51A51.058,51.058,0,0,0-5971,4Z" transform="translate(6026)" fill="url(#linear-gradient)"/>
  <g id="Group_39" data-name="Group 39" transform="translate(35 26.657)">
    <path id="Path_65" data-name="Path 65" d="M218.118,478.967a1.792,1.792,0,0,1-1.791,1.791h-35.6a1.792,1.792,0,0,1-1.791-1.791h0a1.792,1.792,0,0,1,1.791-1.792h35.6a1.792,1.792,0,0,1,1.791,1.792Z" transform="translate(-178.935 -477.175)" fill="#fff"/>
    <path id="Path_66" data-name="Path 66" d="M218.118,532.178a1.792,1.792,0,0,1-1.791,1.792h-35.6a1.792,1.792,0,0,1-1.791-1.792h0a1.791,1.791,0,0,1,1.791-1.791h35.6a1.791,1.791,0,0,1,1.791,1.791Z" transform="translate(-178.935 -477.285)" fill="#fff"/>
    <path id="Path_67" data-name="Path 67" d="M181.328,481.852V529.4h34.406V481.852Zm17.2,35.861a11.378,11.378,0,1,1,11.378-11.378A11.377,11.377,0,0,1,198.531,517.713Z" transform="translate(-178.94 -477.185)" fill="#fff"/>
    <path id="Path_68" data-name="Path 68" d="M202.37,505.713h.039l-3.882-6.511-3.823,6.511h.04a4.62,4.62,0,0,0-1.175,3.047,4.992,4.992,0,0,0,9.974,0A4.624,4.624,0,0,0,202.37,505.713Z" transform="translate(-178.965 -477.221)" fill="#fff"/>
    <path id="Path_69" data-name="Path 69" d="M217.574,486.811c0,1.232-1.646,2.231-3.674,2.231H183.156c-2.03,0-3.675-1-3.675-2.231h0c0-1.231,1.646-2.23,3.675-2.23H213.9c2.029,0,3.674,1,3.674,2.23Z" transform="translate(-178.936 -477.19)" fill="#fff"/>
    <path id="Path_70" data-name="Path 70" d="M217.573,525.482c0,1.231-1.646,2.23-3.674,2.23H183.155c-2.03,0-3.675-1-3.675-2.23h0c0-1.232,1.646-2.23,3.675-2.23H213.9c2.029,0,3.674,1,3.674,2.23Z" transform="translate(-178.936 -477.27)" fill="#fff"/>
    <path id="Path_71" data-name="Path 71" d="M187.172,505.932h-6.849c-.466,0-.842.684-.842,1.527s.376,1.528.842,1.528h7.136a11.357,11.357,0,0,1-.31-2.6C187.149,506.231,187.166,506.083,187.172,505.932Z" transform="translate(-178.936 -477.235)" fill="#fff"/>
    <path id="Path_72" data-name="Path 72" d="M216.794,505.932h-6.849c.006.151.023.3.023.452a11.356,11.356,0,0,1-.31,2.6h7.136c.466,0,.842-.684.842-1.528S217.26,505.932,216.794,505.932Z" transform="translate(-178.999 -477.235)" fill="#fff"/>
  </g>
</svg>
