<svg id="icon-social-trading" xmlns="http://www.w3.org/2000/svg" xmlns:xlink="http://www.w3.org/1999/xlink" width="110.001" height="110.001" viewBox="0 0 110.001 110.001">
  <defs>
    <linearGradient id="linear-gradient" x1="0.181" y1="0.044" x2="0.831" y2="0.866" gradientUnits="objectBoundingBox">
      <stop offset="0" stop-color="#a0762f"/>
      <stop offset="0.158" stop-color="#fdc778"/>
      <stop offset="0.505" stop-color="#ebcb88"/>
      <stop offset="0.854" stop-color="#bb914a"/>
      <stop offset="1" stop-color="#a0762f"/>
    </linearGradient>
  </defs>
  <path id="Exclusion_8" data-name="Exclusion 8" d="M-5971,110a54.652,54.652,0,0,1-21.408-4.322,54.817,54.817,0,0,1-17.482-11.787,54.81,54.81,0,0,1-11.788-17.483A54.65,54.65,0,0,1-6026,55a54.652,54.652,0,0,1,4.322-21.409,54.808,54.808,0,0,1,11.788-17.482,54.817,54.817,0,0,1,17.482-11.787A54.654,54.654,0,0,1-5971,0a54.654,54.654,0,0,1,21.408,4.322,54.817,54.817,0,0,1,17.482,11.787,54.807,54.807,0,0,1,11.788,17.482A54.652,54.652,0,0,1-5916,55a54.65,54.65,0,0,1-4.322,21.408,54.81,54.81,0,0,1-11.788,17.483,54.817,54.817,0,0,1-17.482,11.787A54.652,54.652,0,0,1-5971,110Zm0-106a51.058,51.058,0,0,0-51,51,51.058,51.058,0,0,0,51,51,51.058,51.058,0,0,0,51-51A51.058,51.058,0,0,0-5971,4Z" transform="translate(6026)" fill="url(#linear-gradient)"/>
  <g id="Group_3762" data-name="Group 3762" transform="translate(-502.925 -601.026)">
    <path id="Path_3012" data-name="Path 3012" d="M536.225,632.143v4.218a1.507,1.507,0,0,0,3.014,0v-4.218a7.14,7.14,0,1,0-3.014,0m1.507-11.1a4.128,4.128,0,1,1-4.125,4.128,4.135,4.135,0,0,1,4.125-4.128" transform="translate(20.191 0)" fill="#fff"/>
    <path id="Path_3013" data-name="Path 3013" d="M538.52,637.78a1.5,1.5,0,0,0,1.157-.535l2.7-3.226a7.154,7.154,0,0,0,8.8-1.727,7.141,7.141,0,1,0-11.106-.217l-2.711,3.231a1.506,1.506,0,0,0,1.151,2.473m4.036-12.732a4.127,4.127,0,1,1,.509,5.815,4.122,4.122,0,0,1-.509-5.815" transform="translate(32.351 4.798)" fill="#fff"/>
    <path id="Path_3014" data-name="Path 3014" d="M558.96,632.878a7.14,7.14,0,0,0-12.882-2.852,7.044,7.044,0,0,0-1.284,3.821l-4.151.732a1.507,1.507,0,0,0,.523,2.968l4.157-.735a7.137,7.137,0,0,0,13.637-3.934m-3.654,3.607h0a4.127,4.127,0,1,1-4.1-6.431,4.336,4.336,0,0,1,.726-.064,4.128,4.128,0,0,1,3.37,6.494" transform="translate(36.856 16.943)" fill="#fff"/>
    <path id="Path_3015" data-name="Path 3015" d="M553.341,635.23a7.132,7.132,0,0,0-8.858,1.394l-3.651-2.112a1.509,1.509,0,0,0-1.51,2.612l3.654,2.109a7.139,7.139,0,1,0,10.365-4m0,8.25a4.124,4.124,0,1,1-1.507-5.638,4.106,4.106,0,0,1,1.507,5.638" transform="translate(35.292 30.754)" fill="#fff"/>
    <path id="Path_3016" data-name="Path 3016" d="M540.47,642.3l-1.444-3.961a1.506,1.506,0,1,0-2.829,1.03l1.441,3.963a7.135,7.135,0,1,0,2.832-1.033m4.709,8.815a4.122,4.122,0,1,1-3.741-5.872,4.187,4.187,0,0,1,1.745.387,4.125,4.125,0,0,1,2,5.485" transform="translate(27.204 36.574)" fill="#fff"/>
    <path id="Path_3017" data-name="Path 3017" d="M537.834,643.333l1.441-3.961a1.507,1.507,0,1,0-2.832-1.03L535,642.3a7.137,7.137,0,0,0-3.411,13.779,7.023,7.023,0,0,0,2.439.434,7.14,7.14,0,0,0,3.807-13.183m-2.06,9.781a4.127,4.127,0,1,1-1.739-7.869,4.212,4.212,0,0,1,1.409.249,4.128,4.128,0,0,1,.33,7.62" transform="translate(13.178 36.575)" fill="#fff"/>
    <path id="Path_3018" data-name="Path 3018" d="M538.8,637.123a1.507,1.507,0,0,0-1.507-2.609l-3.657,2.112a7.119,7.119,0,0,0-8.852-1.394,7.143,7.143,0,0,0,1.721,13.084,7.252,7.252,0,0,0,1.86.246,7.145,7.145,0,0,0,6.784-9.327Zm-6.46,5.361a4.13,4.13,0,1,1-.414-3.13,4.1,4.1,0,0,1,.414,3.13" transform="translate(2.437 30.753)" fill="#fff"/>
    <path id="Path_3019" data-name="Path 3019" d="M527.073,641.261a7.166,7.166,0,0,0,6.607-4.443l4.145.732a1.509,1.509,0,0,0,.526-2.971l-4.151-.732a7.141,7.141,0,0,0-14.166-.969,7.154,7.154,0,0,0,5.794,8.277,7.468,7.468,0,0,0,1.244.107m2.361-3.761a4.076,4.076,0,0,1-3.081.682,4.127,4.127,0,0,1,.715-8.193,4,4,0,0,1,.718.067,4.125,4.125,0,0,1,1.649,7.443" transform="translate(0 16.941)" fill="#fff"/>
    <path id="Path_3020" data-name="Path 3020" d="M530.776,634.842a7.151,7.151,0,0,0,3.327-.824l2.708,3.228a1.507,1.507,0,0,0,2.308-1.938l-2.711-3.231a7.138,7.138,0,1,0-5.632,2.766m-.009-11.265a4.125,4.125,0,1,1-2.65.963,4.118,4.118,0,0,1,2.65-.963" transform="translate(7.015 4.8)" fill="#fff"/>
    <g id="Group_3761" data-name="Group 3761" transform="translate(545.564 646.72)">
      <path id="Path_3021" data-name="Path 3021" d="M538.166,627.945a2.33,2.33,0,0,0-2.349,2.312v13.183a2.351,2.351,0,0,0,4.7,0V630.257a2.329,2.329,0,0,0-2.352-2.312" transform="translate(-515.483 -627.945)" fill="#fff"/>
      <path id="Path_3022" data-name="Path 3022" d="M535.773,629.73a2.331,2.331,0,0,0-2.346,2.309v13.186a2.349,2.349,0,0,0,4.7,0V632.039a2.334,2.334,0,0,0-2.352-2.309" transform="translate(-520.007 -624.566)" fill="#fff"/>
      <path id="Path_3023" data-name="Path 3023" d="M533.437,627.945a2.333,2.333,0,0,0-2.355,2.312v13.183a2.355,2.355,0,0,0,4.71,0V630.257a2.333,2.333,0,0,0-2.355-2.312" transform="translate(-524.446 -627.945)" fill="#fff"/>
      <path id="Path_3024" data-name="Path 3024" d="M531.137,630.575a2.333,2.333,0,0,0-2.349,2.308v8.433a2.351,2.351,0,0,0,4.7,0v-8.433a2.33,2.33,0,0,0-2.352-2.308" transform="translate(-528.788 -622.967)" fill="#fff"/>
    </g>
  </g>
</svg>
