<svg id="icon-white-label" xmlns="http://www.w3.org/2000/svg" xmlns:xlink="http://www.w3.org/1999/xlink" width="110.001" height="110.001" viewBox="0 0 110.001 110.001">
  <defs>
    <linearGradient id="linear-gradient" x1="0.181" y1="0.044" x2="0.831" y2="0.866" gradientUnits="objectBoundingBox">
      <stop offset="0" stop-color="#a0762f"/>
      <stop offset="0.158" stop-color="#fdc778"/>
      <stop offset="0.505" stop-color="#ebcb88"/>
      <stop offset="0.854" stop-color="#bb914a"/>
      <stop offset="1" stop-color="#a0762f"/>
    </linearGradient>
  </defs>
  <path id="Exclusion_4" data-name="Exclusion 4" d="M-5971,110a54.652,54.652,0,0,1-21.408-4.322,54.817,54.817,0,0,1-17.482-11.787,54.81,54.81,0,0,1-11.788-17.483A54.65,54.65,0,0,1-6026,55a54.652,54.652,0,0,1,4.322-21.409,54.808,54.808,0,0,1,11.788-17.482,54.817,54.817,0,0,1,17.482-11.787A54.654,54.654,0,0,1-5971,0a54.654,54.654,0,0,1,21.408,4.322,54.817,54.817,0,0,1,17.482,11.787,54.807,54.807,0,0,1,11.788,17.482A54.652,54.652,0,0,1-5916,55a54.65,54.65,0,0,1-4.322,21.408,54.81,54.81,0,0,1-11.788,17.483,54.817,54.817,0,0,1-17.482,11.787A54.652,54.652,0,0,1-5971,110Zm0-106a51.058,51.058,0,0,0-51,51,51.058,51.058,0,0,0,51,51,51.058,51.058,0,0,0,51-51A51.058,51.058,0,0,0-5971,4Z" transform="translate(6026)" fill="url(#linear-gradient)"/>
  <g id="Group_3518" data-name="Group 3518" transform="translate(27 26.014)">
    <path id="Path_1073" data-name="Path 1073" d="M547.536,467.253a4.322,4.322,0,0,1,2.444.828c9.356,6.345-13.644,18.121-13.644,18.121s4.454-18.948,11.2-18.949m0-1.312v0h0c-3.38,0-6.524,3.461-9.343,10.286a71,71,0,0,0-3.135,9.675,1.312,1.312,0,0,0,1.875,1.468c1.653-.846,16.163-8.468,16.587-15.366.083-1.36-.335-3.333-2.8-5.008a5.631,5.631,0,0,0-3.18-1.054Z" transform="translate(-498.329 -465.941)" fill="#fff"/>
    <g id="Group_3517" data-name="Group 3517" transform="translate(0 13.176)">
      <path id="Path_1074" data-name="Path 1074" d="M518.974,520.271l-21.909,14.084c-.927.6-2.314.091-3.1-1.128l-9.709-15.1-2.369,1.524c-.913.587-1.018,2.051-.234,3.27l10.222,15.9c.784,1.219,2.159,1.731,3.071,1.145l21.575-13.869a1.646,1.646,0,0,0,.691-1.015l1.868-4.9C519.046,520.213,519.013,520.246,518.974,520.271Z" transform="translate(-481.129 -495.77)" fill="#fff"/>
      <g id="Group_3516" data-name="Group 3516" transform="translate(2.971)">
        <path id="Path_1075" data-name="Path 1075" d="M519.34,488.431c.227-.758.494-1.605.8-2.506l-10.832-.618h0a1.656,1.656,0,0,0-1.127.232l-21.909,14.084c-.927.6-1.043,2.067-.26,3.287l10.222,15.9c.784,1.219,2.171,1.724,3.1,1.128l21.909-14.084a1.681,1.681,0,0,0,.707-1.025L527.7,490.08a3.074,3.074,0,0,0-2.484-3.865l-1.912-.109c-.362,1.025-.686,2.025-.969,2.959a4.017,4.017,0,1,1-2.994-.634" transform="translate(-485.493 -485.293)" fill="#fff"/>
        <path id="Path_1076" data-name="Path 1076" d="M535.207,489.9h0" transform="translate(-501.358 -486.764)" fill="#fff"/>
        <path id="Path_1077" data-name="Path 1077" d="M535.208,489.9" transform="translate(-501.359 -486.764)" fill="#fff"/>
        <line id="Line_40" data-name="Line 40" transform="translate(37.812 0.813)" fill="#fff"/>
        <line id="Line_41" data-name="Line 41" transform="translate(34.646 0.632)" fill="#fff"/>
        <line id="Line_42" data-name="Line 42" transform="translate(36.843 3.772)" fill="#fff"/>
      </g>
    </g>
  </g>
</svg>
