<svg id="icon-indices" xmlns="http://www.w3.org/2000/svg" xmlns:xlink="http://www.w3.org/1999/xlink" width="110.001" height="110.001" viewBox="0 0 110.001 110.001">
  <defs>
    <linearGradient id="linear-gradient" x1="0.181" y1="0.044" x2="0.831" y2="0.866" gradientUnits="objectBoundingBox">
      <stop offset="0" stop-color="#a0762f"/>
      <stop offset="0.158" stop-color="#fdc778"/>
      <stop offset="0.505" stop-color="#ebcb88"/>
      <stop offset="0.854" stop-color="#bb914a"/>
      <stop offset="1" stop-color="#a0762f"/>
    </linearGradient>
  </defs>
  <path id="Exclusion_6" data-name="Exclusion 6" d="M-5971,110a54.652,54.652,0,0,1-21.408-4.322,54.817,54.817,0,0,1-17.482-11.787,54.81,54.81,0,0,1-11.788-17.483A54.65,54.65,0,0,1-6026,55a54.652,54.652,0,0,1,4.322-21.409,54.808,54.808,0,0,1,11.788-17.482,54.817,54.817,0,0,1,17.482-11.787A54.654,54.654,0,0,1-5971,0a54.654,54.654,0,0,1,21.408,4.322,54.817,54.817,0,0,1,17.482,11.787,54.807,54.807,0,0,1,11.788,17.482A54.652,54.652,0,0,1-5916,55a54.65,54.65,0,0,1-4.322,21.408,54.81,54.81,0,0,1-11.788,17.483,54.817,54.817,0,0,1-17.482,11.787A54.652,54.652,0,0,1-5971,110Zm0-106a51.058,51.058,0,0,0-51,51,51.058,51.058,0,0,0,51,51,51.058,51.058,0,0,0,51-51A51.058,51.058,0,0,0-5971,4Z" transform="translate(6026)" fill="url(#linear-gradient)"/>
  <g id="Group_3738" data-name="Group 3738" transform="translate(-762.915 -1515)">
    <path id="Path_19" data-name="Path 19" d="M1173.7,200.573a9.517,9.517,0,0,1-1.955,1.112c-.647.075-1.3.123-1.956.147V190.5c1.257.017,2.515.09,3.769.191a13.861,13.861,0,0,1,.776-1.775c-1.511-.152-3.031-.254-4.545-.284V177.42h12.766a41.878,41.878,0,0,1-.342,4.753,14.218,14.218,0,0,1,1.931-.514c.161-1.421.272-2.846.294-4.278v.039h9.8a25.206,25.206,0,0,1-.875,5.657,14.087,14.087,0,0,1,4.682,4.085A31.09,31.09,0,0,0,1158.9,147a11.324,11.324,0,0,1,3.343,6.835,10.96,10.96,0,0,1,3.713-2.623c.647-.073,1.3-.123,1.96-.147v11.329a55.415,55.415,0,0,1-7.751-.645,11.843,11.843,0,0,1-1.383,1.581,56.85,56.85,0,0,0,9.134.933v11.213h-12.771a43.481,43.481,0,0,1,1.437-10.5,11.419,11.419,0,0,1-2.131.949,44.882,44.882,0,0,0-1.189,9.595v-.039h-9.8a25.3,25.3,0,0,1,2.559-10.147,11.431,11.431,0,0,1-4.437-3.815,31.09,31.09,0,0,0,36.2,44.71,14.166,14.166,0,0,1-4.09-5.65m20.534-25.023h-9.8a44.674,44.674,0,0,0-2.056-12.833,41.673,41.673,0,0,0,6.314-2.108,25.258,25.258,0,0,1,5.537,14.94m-6.854-16.463a41,41,0,0,1-5.619,1.824,23.463,23.463,0,0,0-5.419-8.744,25.457,25.457,0,0,1,11.038,6.92m-17.591-8.023c.658.024,1.308.073,1.956.147,3.36,1.361,6.266,5.031,8.222,10.1a55.279,55.279,0,0,1-10.177,1.084Zm0,13.2a57.147,57.147,0,0,0,10.8-1.17,43.263,43.263,0,0,1,1.968,12.458h-12.766Zm-26.322,13.057,9.8.027a44.829,44.829,0,0,0,2.056,12.807,42.042,42.042,0,0,0-6.327,2.114,25.283,25.283,0,0,1-5.523-14.948m6.8,16.432a40.5,40.5,0,0,1,5.662-1.841,23.432,23.432,0,0,0,5.431,8.818,25.421,25.421,0,0,1-11.093-6.977m17.646,8.08q-.986-.035-1.953-.145c-3.363-1.362-6.265-5.031-8.226-10.1a55.378,55.378,0,0,1,10.178-1.085Zm0-13.273a57.473,57.473,0,0,0-10.8,1.169,43.58,43.58,0,0,1-1.967-12.347v-.036h12.771Z" transform="translate(-350.848 1393.552)" fill="#fff"/>
    <path id="Path_20" data-name="Path 20" d="M1194.58,191.157a12.415,12.415,0,1,0,12.413,12.416,12.417,12.417,0,0,0-12.413-12.416m3.387,17.209a3.953,3.953,0,0,1-2.648,1.21v1.756h-1.468v-1.747a3.849,3.849,0,0,1-3.574-3.354l2.272-.592a1.977,1.977,0,0,0,2.092,1.919,1.623,1.623,0,0,0,1.22-.408,1.394,1.394,0,0,0,.393-.994,1.085,1.085,0,0,0-.393-.911,6.976,6.976,0,0,0-1.739-.79,10.058,10.058,0,0,1-1.89-.833,3.114,3.114,0,0,1-1.11-1.147,3.41,3.41,0,0,1-.427-1.725,3.832,3.832,0,0,1,.762-2.32,3.4,3.4,0,0,1,2.393-1.261v-1.358h1.468v1.358a3.552,3.552,0,0,1,3.191,2.788l-2.025.829c-.4-1.138-1-1.708-1.831-1.708a1.334,1.334,0,0,0-1,.382,1.276,1.276,0,0,0-.375.925,1.041,1.041,0,0,0,.36.854,6.254,6.254,0,0,0,1.556.731,13.606,13.606,0,0,1,2.055.905,3.235,3.235,0,0,1,1.192,1.173,3.386,3.386,0,0,1,.441,1.752,3.7,3.7,0,0,1-.915,2.564" transform="translate(-359.045 1385.098)" fill="#fff"/>
    <path id="Path_21" data-name="Path 21" d="M1151.939,145.362a9.749,9.749,0,1,0,9.749,9.75,9.751,9.751,0,0,0-9.749-9.75m2.658,13.516a3.1,3.1,0,0,1-2.077.947v1.381h-1.159v-1.371a3.029,3.029,0,0,1-2.8-2.633l1.786-.468a1.554,1.554,0,0,0,1.644,1.51,1.27,1.27,0,0,0,.961-.324,1.079,1.079,0,0,0,.3-.779.852.852,0,0,0-.3-.715,5.546,5.546,0,0,0-1.365-.62,8.046,8.046,0,0,1-1.489-.652,2.437,2.437,0,0,1-.868-.9,2.623,2.623,0,0,1-.335-1.355,3.006,3.006,0,0,1,.6-1.824,2.668,2.668,0,0,1,1.876-.987v-1.065h1.159v1.065a2.8,2.8,0,0,1,2.5,2.19l-1.588.652c-.313-.9-.8-1.345-1.442-1.345a1.049,1.049,0,0,0-.784.3.992.992,0,0,0-.3.726.815.815,0,0,0,.286.669,5.11,5.11,0,0,0,1.221.576,11.132,11.132,0,0,1,1.614.709,2.5,2.5,0,0,1,.93.923,2.621,2.621,0,0,1,.35,1.373,2.923,2.923,0,0,1-.718,2.017" transform="translate(-351.664 1393.552)" fill="#fff"/>
  </g>
</svg>
