<svg id="icon-forex" xmlns="http://www.w3.org/2000/svg" xmlns:xlink="http://www.w3.org/1999/xlink" width="106" height="110.001" viewBox="0 0 106 110.001">
  <defs>
    <linearGradient id="linear-gradient" x1="0.181" y1="0.044" x2="0.831" y2="0.866" gradientUnits="objectBoundingBox">
      <stop offset="0" stop-color="#a0762f"/>
      <stop offset="0.158" stop-color="#fdc778"/>
      <stop offset="0.505" stop-color="#ebcb88"/>
      <stop offset="0.854" stop-color="#bb914a"/>
      <stop offset="1" stop-color="#a0762f"/>
    </linearGradient>
  </defs>
  <path id="Exclusion_2" data-name="Exclusion 2" d="M-5973,110a51.02,51.02,0,0,1-20.63-4.322,52.765,52.765,0,0,1-16.847-11.787,54.978,54.978,0,0,1-11.359-17.483A56.443,56.443,0,0,1-6026,55a56.445,56.445,0,0,1,4.165-21.409,54.976,54.976,0,0,1,11.359-17.482A52.764,52.764,0,0,1-5993.63,4.322,51.022,51.022,0,0,1-5973,0a51.016,51.016,0,0,1,20.629,4.322,52.761,52.761,0,0,1,16.846,11.787,54.977,54.977,0,0,1,11.359,17.482A56.446,56.446,0,0,1-5920,55a56.443,56.443,0,0,1-4.165,21.408,54.978,54.978,0,0,1-11.359,17.483,52.761,52.761,0,0,1-16.846,11.787A51.014,51.014,0,0,1-5973,110Zm0-106c-27.019,0-49,22.879-49,51s21.981,51,49,51,49-22.879,49-51S-5945.981,4-5973,4Z" transform="translate(6026)" fill="url(#linear-gradient)"/>
  <path id="Path_3009" data-name="Path 3009" d="M111.943,691.3l-6.557.989a.042.042,0,0,1-.041-.069A30.987,30.987,0,0,0,75.26,643.075a1.542,1.542,0,0,0-.239.041,30.982,30.982,0,0,0-10.944,4.229l-.017.012-.048.036a.187.187,0,0,0-.045.031l-.036.033-.05.043-.026.029a.624.624,0,0,0-.05.057l-.019.024c-.017.022-.033.041-.048.062l-.022.034-.036.06-.024.048-.024.05-.024.057-.014.048-.017.06-.014.048-.01.055a.577.577,0,0,0-.007.06l0,.048,0,.067,0,.017V668.47a.042.042,0,0,1-.041.041,3.075,3.075,0,0,0-2.875,3.063v12.977a3.077,3.077,0,0,0,2.875,3.066.039.039,0,0,1,.041.041v8.975a.044.044,0,0,1-.069.036,28.9,28.9,0,0,1-3.209-2.769A28.693,28.693,0,0,1,57.8,656.126a.044.044,0,0,1,.079.024l.552,7.159a.383.383,0,0,0,.413.351l1.073-.084a.383.383,0,0,0,.354-.411l-.791-10.244a.383.383,0,0,0-.44-.349L48.878,654.1a.387.387,0,0,0-.323.439l.16,1.063a.384.384,0,0,0,.437.323l6.559-.989a.042.042,0,0,1,.041.067,31,31,0,0,0,40.494,45.342l.053-.036a1.149,1.149,0,0,0,.7-1.061V684.377a.046.046,0,0,1,.043-.043,3.074,3.074,0,0,0,2.927-3.066V659.746a3.117,3.117,0,0,0-3.118-3.116.043.043,0,0,1-.043-.045v-6.519a.044.044,0,0,1,.069-.038A28.691,28.691,0,0,1,103.3,691.1a.045.045,0,0,1-.079-.027l-.552-7.156a.385.385,0,0,0-.413-.356l-1.073.084a.385.385,0,0,0-.354.413l.791,10.241a.382.382,0,0,0,.44.351l10.16-1.532a.383.383,0,0,0,.323-.435l-.16-1.068a.38.38,0,0,0-.437-.32m-25.35-2.5H84.586a.813.813,0,0,1-.812-.812V668.061a.812.812,0,0,1,.812-.812h2.007a.812.812,0,0,1,.812.812V687.98a.813.813,0,0,1-.812.812m-10.246-8.547h-2.01a.813.813,0,0,1-.81-.812V659.978a.813.813,0,0,1,.81-.812h2.01a.813.813,0,0,1,.81.812v19.455a.813.813,0,0,1-.81.812M62.928,684.51V671.617a.813.813,0,0,1,.812-.813h2.007a.813.813,0,0,1,.812.813V684.51a.811.811,0,0,1-.812.81H63.74a.811.811,0,0,1-.812-.81m2.913,3.154a.047.047,0,0,1,.043-.045,3.071,3.071,0,0,0,2.98-3.068V671.574a3.075,3.075,0,0,0-2.98-3.07.041.041,0,0,1-.043-.041V648.991a.042.042,0,0,1,.024-.036,28.58,28.58,0,0,1,8.272-3.307.048.048,0,0,1,.055.045v11.132a.041.041,0,0,1-.043.041,3.077,3.077,0,0,0-2.927,3.068v19.541a3.073,3.073,0,0,0,2.927,3.066.043.043,0,0,1,.043.043V701.54a.047.047,0,0,1-.055.043,28.684,28.684,0,0,1-8.272-3.317.049.049,0,0,1-.024-.041ZM76.5,701.982v-19.4a.041.041,0,0,1,.041-.043,3.072,3.072,0,0,0,2.927-3.066V659.935a3.077,3.077,0,0,0-2.927-3.068.039.039,0,0,1-.041-.041V645.249a.042.042,0,0,1,.038-.043,28.726,28.726,0,0,1,7.075-.124c.263.026.528.062.791.1a.044.044,0,0,1,.038.043V664.91a.042.042,0,0,1-.043.041,3.074,3.074,0,0,0-2.927,3.066v20.007a3.074,3.074,0,0,0,2.927,3.066.044.044,0,0,1,.043.043v10.881a.044.044,0,0,1-.038.043,28.716,28.716,0,0,1-7.866-.029.043.043,0,0,1-.038-.045m21.173-42.236v21.481a.813.813,0,0,1-.812.812H94.849a.815.815,0,0,1-.812-.812V659.746a.811.811,0,0,1,.812-.81h2.007a.81.81,0,0,1,.812.81m-3.159-3.14a.042.042,0,0,1-.041.043,3.075,3.075,0,0,0-2.736,3.054v21.565a3.073,3.073,0,0,0,2.927,3.066.044.044,0,0,1,.041.043v14.177a.039.039,0,0,1-.022.036,28.542,28.542,0,0,1-7.885,3.04.043.043,0,0,1-.053-.043V691.132a.042.042,0,0,1,.041-.043,3.076,3.076,0,0,0,2.927-3.066V668.016a3.074,3.074,0,0,0-2.927-3.066.04.04,0,0,1-.041-.041V645.651a.044.044,0,0,1,.053-.043,28.732,28.732,0,0,1,7.692,2.929.046.046,0,0,1,.024.041Z" transform="translate(-27.551 -618.618)" fill="#fff"/>
</svg>
